<?xml version="1.0" encoding="UTF-8" standalone="no"?>
<!-- Created with Inkscape (http://www.inkscape.org/) -->

<svg
   width="64mm"
   height="64mm"
   viewBox="0 0 64 64"
   version="1.1"
   id="svg1"
   inkscape:version="1.4.3 (0d15f75, 2025-12-25)"
   sodipodi:docname="Food.svg"
   xmlns:inkscape="http://www.inkscape.org/namespaces/inkscape"
   xmlns:sodipodi="http://sodipodi.sourceforge.net/DTD/sodipodi-0.dtd"
   xmlns="http://www.w3.org/2000/svg"
   xmlns:svg="http://www.w3.org/2000/svg">
  <sodipodi:namedview
     id="namedview1"
     pagecolor="#ffffff"
     bordercolor="#000000"
     borderopacity="0.25"
     inkscape:showpageshadow="2"
     inkscape:pageopacity="0.0"
     inkscape:pagecheckerboard="0"
     inkscape:deskcolor="#d1d1d1"
     inkscape:document-units="mm"
     inkscape:zoom="6.1229019"
     inkscape:cx="151.64378"
     inkscape:cy="102.81073"
     inkscape:window-width="2560"
     inkscape:window-height="1417"
     inkscape:window-x="2552"
     inkscape:window-y="-8"
     inkscape:window-maximized="1"
     inkscape:current-layer="layer1" />
  <defs
     id="defs1" />
  <g
     inkscape:label="Layer 1"
     inkscape:groupmode="layer"
     id="layer1">
    <path
       style="fill:#ffb380;stroke-width:1.14701"
       id="path27"
       sodipodi:type="arc"
       sodipodi:cx="31.436548"
       sodipodi:cy="-24.438314"
       sodipodi:rx="26.521784"
       sodipodi:ry="14.409261"
       sodipodi:start="6.2704471"
       sodipodi:end="3.1415927"
       sodipodi:arc-type="slice"
       d="M 57.95618,-24.621858 A 26.521784,14.409261 0 0 1 44.892011,-12.02116 26.521784,14.409261 0 0 1 18.273301,-11.92905 26.521784,14.409261 0 0 1 4.9147644,-24.438314 H 31.436548 Z"
       transform="scale(1,-1)" />
    <path
       style="fill:#ffb380;stroke-width:0.848596"
       id="path27-8"
       sodipodi:type="arc"
       sodipodi:cx="32.188526"
       sodipodi:cy="43.692387"
       sodipodi:rx="26.521784"
       sodipodi:ry="7.8870254"
       sodipodi:start="6.2704471"
       sodipodi:end="3.1415927"
       sodipodi:arc-type="slice"
       d="M 58.708158,43.591923 A 26.521784,7.8870254 0 0 1 45.643989,50.489016 26.521784,7.8870254 0 0 1 19.025279,50.539434 26.521784,7.8870254 0 0 1 5.6667423,43.692387 H 32.188526 Z" />
    <rect
       style="fill:#ff0000;stroke-width:0.817719"
       id="rect28"
       width="53.659153"
       height="3.8245094"
       x="5.4859729"
       y="32.579281" />
    <path
       style="fill:#00d400;stroke-width:0.75318"
       id="path28"
       d="m 3.4108278,31.680413 c 0.640058,0.91421 0.939128,2.55221 1.920183,2.742621 1.142434,0.221739 2.056583,-1.298153 3.1485569,-1.758831 3.0900123,-1.303615 1.7414013,4.115897 4.5518353,-5.71212 0.193128,-0.675339 -1.078604,-2.40338 -1.095502,-1.689509 -0.04356,1.839769 0.671994,3.591209 1.007999,5.38682 -0.912459,0.905019 -2.519063,1.317088 -2.737369,2.715052 -0.142427,0.912147 1.382584,0.995087 2.154005,1.020626 0.120818,0.0041 5.262615,-1.740735 5.34076,-1.77883 2.815167,-1.372244 1.250325,-1.503183 2.248399,-1.396813 -0.908914,0.307056 -2.196483,-0.01802 -2.72675,0.921206 -0.350552,0.621004 1.120647,0.776344 1.743694,0.820306 0.409246,0.02903 4.592827,-0.295947 5.683963,-0.990427 0.885546,-0.563616 2.508317,-0.941282 2.421403,-2.141684 -0.145674,-2.011785 -1.955394,-3.28356 -2.933092,-4.925333 -0.804384,2.368357 -2.222657,4.557048 -2.413148,7.105072 -0.06677,0.893115 1.029851,1.468618 1.757554,1.664075 1.462977,0.392956 3.04929,0.48331 4.497056,0.0159 0.702971,-0.226954 0.918542,-1.370414 1.469634,-1.942222 1.684117,-1.747442 1.055278,-0.164549 1.490079,-1.468951 -5.362509,0.551104 -1.36916,4.0323 -0.285922,3.910228 0.986069,-0.111099 1.609987,-1.750915 2.600212,-1.728938 1.197638,0.02653 2.052565,2.005054 3.244205,1.858677 0.733623,-0.09012 0.760815,-1.536233 0.990721,-2.378896 0.05613,-0.205663 -0.295313,0.247556 -0.442974,0.371324 -0.31453,-0.08493 -1.102105,-0.592281 -0.943592,-0.254706 1.031276,2.196167 1.655997,0.675997 3.099169,0.920403 0.33867,0.0573 0.505021,0.780766 0.841366,0.706222 3.498275,-0.775314 3.176104,-0.650724 2.517943,-2.668219 1.122282,1.165893 -1.27281,2.300111 -0.730809,3.18973 0.311048,0.510541 0.972129,-0.486487 1.448033,-0.756708 0.145125,-0.08242 0.259893,-0.238315 0.41213,-0.299471 0.06647,-0.02654 0.136905,0.06624 0.205873,0.05118 0.947596,-0.206788 1.885121,-0.475443 2.827682,-0.713166 0.45605,0.0973 0.912101,0.194581 1.368152,0.291853 0.04319,-0.04658 0.187337,-0.134212 0.129502,-0.139842 -0.37555,-0.03653 -0.813393,-0.203479 -1.129762,0.04261 -0.171739,0.133593 0.318215,0.309182 0.475671,0.466162 0.36203,0.360972 0.61583,1.155135 1.082751,1.087737 1.153277,-0.166487 2.122501,-1.135752 3.183748,-1.703631 -0.159687,5.271132 2.815786,0.729373 2.192533,0.262104 -0.626967,-0.470044 -1.615249,0.377254 -2.213171,-0.144633 -0.496326,-0.433213 -0.864299,-1.645175 -0.420407,-2.154057 0.383247,-0.439351 0.544272,1.217282 1.038624,1.445335 0.909424,0.419516 1.936989,0.249399 2.905483,0.374098 0.273772,-0.122004 0.552201,-0.229855 0.82132,-0.366034 0.143526,-0.07261 0.565752,-0.303155 0.414395,-0.2592 -0.658526,0.191151 -1.436399,1.240372 -1.946218,0.703866 -0.942074,-0.991379 -1.021447,-2.75832 -1.377548,-4.201598 -0.228534,-0.926234 0.39406,1.99676 0.992559,2.641249 0.888174,0.956411 2.142376,1.25869 3.213562,1.888032 0.550094,-0.85878 1.515449,0.66034 2.006679,0.113025 2.375842,-2.64694 -2.932111,-7.121779 -3.240421,-7.558528 -0.429144,0.221085 2.170486,7.519899 2.599627,7.298827 v 0 c -1.004288,-1.741625 -2.357943,-3.257226 -3.012879,-5.224873 -0.14873,-0.446823 0.898571,-0.30178 1.020789,-0.760066 0.119841,-0.449411 -1.493603,-1.847176 -1.165587,0.199169 0.746128,0.445093 1.70781,0.563183 2.238379,1.335283 0.386992,0.563156 0.419492,2.851701 0.178121,2.181257 -0.426179,-1.183758 -0.04176,-2.792863 -0.74789,-3.763865 -3.494926,-4.806024 -1.586081,0.340472 -2.940003,0.394695 -0.444444,0.01782 -0.750206,-0.574487 -1.125306,-0.861727 0.77931,0.0017 1.701059,-0.53612 2.337927,0.0041 0.530784,0.450187 0.952326,1.935481 0.377428,2.29898 -0.556767,0.352036 -0.563176,-1.459076 -1.108079,-1.83701 -0.756641,-0.524781 -1.716875,-0.404526 -2.554306,-0.703092 -2.304043,-0.821435 -0.810571,-1.215317 -2.89737,0.03585 0.406765,-0.09528 0.984193,-0.695444 1.220295,-0.285862 0.216594,0.37574 -0.518831,0.7855 -0.895213,0.849799 -0.400956,0.06845 -0.74893,-0.379971 -1.141019,-0.501884 -2.824274,-0.87817 -3.31318,-2.154762 -3.690234,0.995212 -0.01308,0.108978 0.167552,0.08876 0.25135,0.133141 0.734018,-0.281429 1.513189,-0.429374 2.202045,-0.844267 0.233233,-0.14048 -0.556503,0.145954 -0.782495,-0.01073 -0.446482,-0.309524 -0.649606,-1.01175 -1.106397,-1.298682 -0.36838,-0.231417 -0.829045,-0.260762 -1.238372,-0.174234 -3.00678,0.635674 -2.649593,0.655587 -4.530105,2.490153 -0.762964,-1.168006 -0.02543,0.173268 1.789971,-0.338583 0.222562,-0.06277 -0.329943,-0.5345 -0.554781,-0.484841 -0.591674,0.130645 -1.026561,1.104369 -1.616753,0.96437 -0.621322,-0.147386 -0.871496,-1.105317 -1.307252,-1.657983 -1.11431,0.06922 -2.228625,0.138492 -3.34294,0.207754 -2.458691,0.640781 -1.280228,0.436948 -0.519958,-0.0679 0.478206,-0.317536 1.922924,-1.157275 1.383034,-1.057228 -0.793976,0.147167 -1.388305,1.241724 -2.191133,1.206983 -0.677784,-0.02936 -1.122173,-0.916416 -1.683256,-1.374621 -1.697397,0.503346 -3.3948,1.006701 -5.092196,1.510048 0.07895,-0.111235 0.463486,-0.616192 0.341365,-0.714118 -0.255659,-0.20501 -0.76461,-0.3889 -0.920025,-0.0701 -0.292221,0.599441 0.161644,1.44227 -0.06139,2.083274 -0.114505,0.329082 -0.210155,-0.667186 -0.315248,-1.000792 -0.990899,1.685217 -1.981805,3.370435 -2.972702,5.055648 -3.195442,-5.104393 -2.915541,-2.215682 -1.242665,-6.657528 0.112018,-0.297441 -0.214258,0.673672 -0.462259,0.806589 -0.183834,0.09852 0.39945,-0.784646 0.219421,-0.676446 -5.569599,3.34784 0.688149,1.663347 -6.907826,2.758226 -0.03571,0.105807 -0.196165,0.357116 -0.107119,0.317433 0.705022,-0.314242 1.423857,-0.64529 2.032782,-1.175736 0.433242,-0.377402 1.481961,-1.155181 1.023472,-1.48664 -0.614695,-0.444388 -1.349059,0.652648 -2.06299,0.735122 -6.1644683,0.712161 3.06443,-2.861768 -6.7792373,1.954842 0.135786,1.412116 0.400549,2.814835 0.407336,4.236331 6.87e-4,0.15862 -0.461258,0.231762 -0.386623,0.100998 1.1984239,-2.099863 2.9073313,-3.808467 3.8156113,-6.109185 0.18202,-0.461053 -0.680616,-0.680028 -1.09739,-0.776227 -0.943191,-0.217715 -1.9192113,-0.09444 -2.8788203,-0.141631 -0.9817769,-0.280929 -1.9635599,-0.561844 -2.9453449,-0.842763 -0.421059,-0.158736 -2.287611,7.002568 -1.866551,7.161295 z" />
    <ellipse
       style="fill:#ff0000;stroke-width:0.951644"
       id="path29"
       cx="5.5693336"
       cy="34.491535"
       rx="1.2632474"
       ry="1.9122547" />
    <ellipse
       style="fill:#ff0000;stroke-width:0.951644"
       id="path29-1"
       cx="59.16914"
       cy="34.495255"
       rx="1.2632474"
       ry="1.9122547" />
    <rect
       style="fill:#a05a2c;stroke-width:1.0677"
       id="rect28-2"
       width="53.659153"
       height="6.5202503"
       x="5.4576659"
       y="36.728107" />
    <ellipse
       style="fill:#a05a2c;stroke-width:1.24256"
       id="path29-7"
       cx="5.5410261"
       cy="39.98822"
       rx="1.2632474"
       ry="3.2601252" />
    <ellipse
       style="fill:#a05a2c;stroke-width:1.24256"
       id="path29-1-6"
       cx="59.140835"
       cy="39.994556"
       rx="1.2632474"
       ry="3.2601252" />
    <g
       id="g31">
      <ellipse
         style="fill:#ffccaa;stroke-width:0.13229167;stroke:#000000;stroke-opacity:1;stroke-dasharray:none"
         id="path30"
         cx="16.355913"
         cy="17.554358"
         rx="0.7511487"
         ry="0.88062119" />
      <ellipse
         style="fill:#ffccaa;stroke-width:0.13229167;stroke:#000000;stroke-opacity:1;stroke-dasharray:none"
         id="path30-5"
         cx="22.491169"
         cy="17.54277"
         rx="0.7511487"
         ry="0.88062119" />
      <ellipse
         style="fill:#ffccaa;stroke-width:0.13229167;stroke:#000000;stroke-opacity:1;stroke-dasharray:none"
         id="path30-9"
         cx="31.830626"
         cy="18.345444"
         rx="0.7511487"
         ry="0.88062119" />
      <ellipse
         style="fill:#ffccaa;stroke-width:0.13229167;stroke:#000000;stroke-opacity:1;stroke-dasharray:none"
         id="path30-4"
         cx="26.493792"
         cy="12.726744"
         rx="0.7511487"
         ry="0.88062119" />
      <ellipse
         style="fill:#ffccaa;stroke-width:0.13229167;stroke:#000000;stroke-opacity:1;stroke-dasharray:none"
         id="path30-3"
         cx="42.837841"
         cy="21.154795"
         rx="0.7511487"
         ry="0.88062119" />
      <ellipse
         style="fill:#ffccaa;stroke-width:0.13229167;stroke:#000000;stroke-opacity:1;stroke-dasharray:none"
         id="path30-8"
         cx="38.835217"
         cy="13.930747"
         rx="0.7511487"
         ry="0.88062119" />
      <ellipse
         style="fill:#ffccaa;stroke-width:0.13229167;stroke:#000000;stroke-opacity:1;stroke-dasharray:none"
         id="path30-7"
         cx="26.827347"
         cy="21.957462"
         rx="0.7511487"
         ry="0.88062119" />
      <ellipse
         style="fill:#ffccaa;stroke-width:0.13229167;stroke:#000000;stroke-opacity:1;stroke-dasharray:none"
         id="path30-86"
         cx="11.817503"
         cy="21.556128"
         rx="0.7511487"
         ry="0.88062119" />
      <ellipse
         style="fill:#ffccaa;stroke-width:0.13229167;stroke:#000000;stroke-opacity:1;stroke-dasharray:none"
         id="path30-6"
         cx="20.156305"
         cy="21.556128"
         rx="0.7511487"
         ry="0.88062119" />
      <ellipse
         style="fill:#ffccaa;stroke-width:0.13229167;stroke:#000000;stroke-opacity:1;stroke-dasharray:none"
         id="path30-65"
         cx="38.168114"
         cy="17.141436"
         rx="0.7511487"
         ry="0.88062119" />
      <ellipse
         style="fill:#ffccaa;stroke-width:0.13229167;stroke:#000000;stroke-opacity:1;stroke-dasharray:none"
         id="path30-61"
         cx="52.510849"
         cy="21.957462"
         rx="0.7511487"
         ry="0.88062119" />
      <ellipse
         style="fill:#ffccaa;stroke-width:0.13229167;stroke:#000000;stroke-opacity:1;stroke-dasharray:none"
         id="path30-44"
         cx="36.833904"
         cy="23.161472"
         rx="0.7511487"
         ry="0.88062119" />
      <ellipse
         style="fill:#ffccaa;stroke-width:0.13229167;fill-opacity:1;stroke-dasharray:none;stroke:#000000;stroke-opacity:1"
         id="path30-1"
         cx="47.174019"
         cy="16.740101"
         rx="0.75099999"
         ry="0.88062119"
         inkscape:highlight-color="#000000" />
      <ellipse
         style="fill:#ffccaa;stroke-width:0.13229167;stroke:#000000;stroke-opacity:1;stroke-dasharray:none"
         id="path30-37"
         cx="31.830626"
         cy="13.128078"
         rx="0.7511487"
         ry="0.88062119" />
      <ellipse
         style="fill:#ffccaa;stroke-width:0.13229167;stroke:#000000;stroke-opacity:1;stroke-dasharray:none"
         id="path30-13"
         cx="26.827347"
         cy="17.944107"
         rx="0.7511487"
         ry="0.88062119" />
      <ellipse
         style="fill:#ffccaa;stroke-width:0.13229167;stroke:#000000;stroke-opacity:1;stroke-dasharray:none"
         id="path30-0"
         cx="20.489857"
         cy="13.529412"
         rx="0.7511487"
         ry="0.88062119" />
    </g>
  </g>
</svg>
