<?xml version="1.0" encoding="UTF-8" standalone="no"?>
<!-- Created with Inkscape (http://www.inkscape.org/) -->

<svg
   width="64mm"
   height="64mm"
   viewBox="0 0 64 64"
   version="1.1"
   id="svg1"
   inkscape:version="1.4.3 (0d15f75, 2025-12-25)"
   sodipodi:docname="games.svg"
   xmlns:inkscape="http://www.inkscape.org/namespaces/inkscape"
   xmlns:sodipodi="http://sodipodi.sourceforge.net/DTD/sodipodi-0.dtd"
   xmlns="http://www.w3.org/2000/svg"
   xmlns:svg="http://www.w3.org/2000/svg">
  <sodipodi:namedview
     id="namedview1"
     pagecolor="#ffffff"
     bordercolor="#000000"
     borderopacity="0.25"
     inkscape:showpageshadow="2"
     inkscape:pageopacity="0.0"
     inkscape:pagecheckerboard="0"
     inkscape:deskcolor="#d1d1d1"
     inkscape:document-units="mm"
     showgrid="true"
     inkscape:zoom="2.8284271"
     inkscape:cx="153.44217"
     inkscape:cy="110.83899"
     inkscape:window-width="2560"
     inkscape:window-height="1417"
     inkscape:window-x="2552"
     inkscape:window-y="-8"
     inkscape:window-maximized="1"
     inkscape:current-layer="layer1">
    <inkscape:grid
       id="grid1"
       units="mm"
       originx="0"
       originy="0"
       spacingx="0.19999999"
       spacingy="0.19999999"
       empcolor="#0099e5"
       empopacity="0.30196078"
       color="#0099e5"
       opacity="0.14901961"
       empspacing="5"
       enabled="true"
       visible="true" />
  </sodipodi:namedview>
  <defs
     id="defs1" />
  <g
     inkscape:label="Layer 1"
     inkscape:groupmode="layer"
     id="layer1">
    <path
       id="path1"
       style="stroke:#dcff00;stroke-width:0"
       d="m 13.214133,12.422076 c -0.273449,0 -0.587328,0.02198 -0.931192,0.07938 -0.17193,0.02869 -0.351201,0.06594 -0.537194,0.114101 -0.185994,0.04816 -0.378336,0.107539 -0.576028,0.1786 -0.197693,0.07107 -0.400548,0.153974 -0.60758,0.251363 -0.207032,0.09738 -0.418651,0.208584 -0.6326597,0.335703 -0.21401,0.127126 -0.431024,0.270515 -0.64965,0.430791 -0.218625,0.160275 -0.438477,0.338124 -0.659358,0.534973 -0.220879,0.196853 -0.442629,0.412233 -0.663404,0.649081 -0.220772,0.236847 -0.441051,0.4945 -0.659356,0.774762 -0.218307,0.280263 -0.434557,0.583268 -0.648033,0.910367 -0.213476,0.327099 -0.423947,0.678539 -0.630233,1.055892 -0.825143,1.509416 -1.583301,3.434421 -2.19894,5.884719 v 8.26e-4 c -0.499791,1.989353 -0.890033,3.927467 -1.179562,5.794593 -0.579061,3.73425 -0.75504,7.185201 -0.593827,10.197588 0.161212,3.012387 0.65919,5.585797 1.426316,7.565714 0.191782,0.494978 0.400168,0.953434 0.62457,1.37175 0.336604,0.627475 0.709126,1.165243 1.113223,1.606577 0.134702,0.14711 0.27255,0.284076 0.414222,0.409293 0.141668,0.12522 0.286873,0.238776 0.435259,0.341491 0.741926,0.513569 1.566165,0.741909 2.456209,0.647426 0.209263,-0.02221 0.416007,-0.04956 0.619717,-0.08517 0.611127,-0.106853 1.1968777,-0.282817 1.7572077,-0.581279 0.186777,-0.09949 0.370717,-0.212823 0.551757,-0.34149 0.362084,-0.257338 0.712866,-0.577129 1.051738,-0.974863 0.338869,-0.397731 0.666057,-0.873169 0.981351,-1.442858 0.472941,-0.854536 0.919258,-1.920157 1.338132,-3.250363 0.5585,-1.773609 1.068416,-4.017748 1.528255,-6.857926 0.06777,-0.418578 0.163641,-0.810073 0.285588,-1.175787 0.121942,-0.365714 0.270133,-0.705578 0.441729,-1.021991 0.257394,-0.474618 0.567536,-0.895519 0.92391,-1.269221 0.593959,-0.622838 1.315424,-1.114552 2.127745,-1.501566 1.299712,-0.619225 2.833606,-0.971832 4.456937,-1.17248 0.811665,-0.100323 1.645468,-0.162524 2.483717,-0.200924 1.676498,-0.0768 3.369523,-0.05789 4.935074,-0.05788 h 8.08e-4 c 2.348132,-1.6e-5 4.984062,-0.04213 7.418787,0.258805 1.62333,0.200648 3.15723,0.553254 4.45694,1.172479 0.64986,0.309611 1.24177,0.686562 1.7564,1.143538 0.25732,0.228489 0.49523,0.476805 0.71195,0.747477 0.21671,0.270671 0.41171,0.56336 0.58331,0.879772 0.17159,0.316413 0.31978,0.656277 0.44172,1.021991 0.12195,0.365715 0.21782,0.757209 0.28559,1.175787 0.45984,2.840178 0.96976,5.084317 1.52826,6.857926 0.27925,0.886804 0.57038,1.655954 0.87375,2.32346 0.15168,0.333752 0.30673,0.642057 0.46438,0.926903 0.31529,0.56969 0.64248,1.045127 0.98135,1.442858 0.16944,0.198868 0.34171,0.378143 0.51697,0.539938 0.17526,0.161795 0.35373,0.306256 0.53477,0.434925 0.9052,0.643342 1.88237,0.89686 2.92868,1.007934 0.53403,0.05669 1.04438,-0.0028 1.52745,-0.170331 0.16102,-0.05589 0.31844,-0.123797 0.47328,-0.203406 0.92901,-0.477631 1.74417,-1.3761 2.41737,-2.63105 0.22441,-0.418316 0.4336,-0.876772 0.62538,-1.37175 0.19178,-0.49498 0.36638,-1.02656 0.52344,-1.593348 0.78531,-2.833941 1.12363,-6.535185 0.88346,-10.800366 -0.0961,-1.706072 -0.28488,-3.502464 -0.57441,-5.369588 -0.28953,-1.86712 -0.67977,-3.805234 -1.17956,-5.794587 -0.30781,-1.225212 -0.65135,-2.319538 -1.02099,-3.295838 -0.36964,-0.976301 -0.76537,-1.834961 -1.17795,-2.589707 -1.03144,-1.886868 -2.16723,-3.123658 -3.26038,-3.925075 -0.43726,-0.32057 -0.86824,-0.57172 -1.28231,-0.766496 -0.41408,-0.194776 -0.81162,-0.333619 -1.18361,-0.429963 -0.55799,-0.144518 -1.05821,-0.193484 -1.46839,-0.193484 h -18.785637 -8.08e-4 z" />
    <circle
       style="fill:#b3b3b3;fill-opacity:1;stroke:#dcff00;stroke-width:0"
       id="path2"
       cx="12"
       cy="21.5"
       r="7.999999" />
    <circle
       style="fill:#b3b3b3;fill-opacity:1;stroke:#dcff00;stroke-width:0"
       id="path2-2"
       cx="-51.978512"
       cy="21.5"
       r="7.999999"
       inkscape:transform-center-x="-19.989257"
       inkscape:transform-center-y="-0.88867118"
       transform="scale(-1,1)" />
    <rect
       style="fill:#4d4d4d;fill-opacity:1;stroke:#dcff00;stroke-width:0"
       id="rect2"
       width="22"
       height="9.999999"
       x="21"
       y="13.999999" />
    <circle
       style="fill:#808080;fill-opacity:1;stroke:#dcff00;stroke-width:0"
       id="path3"
       cx="21.874178"
       cy="29.5"
       r="4.5" />
    <circle
       style="fill:#808080;fill-opacity:1;stroke:#dcff00;stroke-width:0"
       id="path3-1"
       cx="-42.123074"
       cy="29.5"
       r="4.5"
       inkscape:transform-center-x="-10.124449"
       inkscape:transform-center-y="-0.49609375"
       transform="scale(-1,1)" />
    <path
       id="rect3"
       style="fill:#333333;stroke:#dcff00;stroke-width:0"
       d="m 4.702609,20.099999 h 3.7790694 l 2.7209306,1.4 -2.7209306,1.4 H 4.702609 Z"
       sodipodi:nodetypes="cccccc" />
    <path
       id="rect3-1"
       style="fill:#333333;stroke:#dcff00;stroke-width:0"
       d="m 18.939534,20.099999 h -3.779069 l -2.72093,1.4 2.72093,1.4 h 3.779069 z"
       sodipodi:nodetypes="cccccc" />
    <path
       id="rect3-9"
       style="fill:#333333;stroke:#dcff00;stroke-width:0"
       d="m 13.2,14.499999 v 3.77907 l -1.4,2.72093 -1.4,-2.72093 v -3.77907 z"
       sodipodi:nodetypes="cccccc" />
    <path
       id="rect3-9-2"
       style="fill:#333333;stroke:#dcff00;stroke-width:0"
       d="m 13.2,28.699999 v -3.77907 l -1.4,-2.72093 -1.4,2.72093 v 3.77907 z"
       sodipodi:nodetypes="cccccc" />
    <circle
       style="fill:#000000;fill-opacity:1;stroke:#dcff00;stroke-width:0"
       id="path7"
       cx="51.978512"
       cy="17.499146"
       r="2.3" />
    <circle
       style="fill:#000000;fill-opacity:1;stroke:#dcff00;stroke-width:0"
       id="path7-0"
       cx="56.53228"
       cy="21.5"
       r="2.3" />
    <circle
       style="fill:#000000;fill-opacity:1;stroke:#dcff00;stroke-width:0"
       id="path7-2"
       cx="51.978512"
       cy="25.449999"
       r="2.3" />
    <circle
       style="fill:#000000;fill-opacity:1;stroke:#dcff00;stroke-width:0"
       id="path7-1"
       cx="47.360466"
       cy="21.5"
       r="2.3" />
  </g>
</svg>
