<?xml version="1.0" encoding="UTF-8" standalone="no"?>
<!-- Created with Inkscape (http://www.inkscape.org/) -->

<svg
   width="64mm"
   height="64mm"
   viewBox="0 0 64 64"
   version="1.1"
   id="svg1"
   inkscape:version="1.4.3 (0d15f75, 2025-12-25)"
   sodipodi:docname="travel.svg"
   xmlns:inkscape="http://www.inkscape.org/namespaces/inkscape"
   xmlns:sodipodi="http://sodipodi.sourceforge.net/DTD/sodipodi-0.dtd"
   xmlns="http://www.w3.org/2000/svg"
   xmlns:svg="http://www.w3.org/2000/svg">
  <sodipodi:namedview
     id="namedview1"
     pagecolor="#ffffff"
     bordercolor="#000000"
     borderopacity="0.25"
     inkscape:showpageshadow="2"
     inkscape:pageopacity="0.0"
     inkscape:pagecheckerboard="0"
     inkscape:deskcolor="#d1d1d1"
     inkscape:document-units="mm"
     showgrid="true"
     inkscape:zoom="3.5517615"
     inkscape:cx="160.90608"
     inkscape:cy="81.508852"
     inkscape:window-width="2560"
     inkscape:window-height="1417"
     inkscape:window-x="2552"
     inkscape:window-y="-8"
     inkscape:window-maximized="1"
     inkscape:current-layer="layer1">
    <inkscape:grid
       id="grid1"
       units="mm"
       originx="0"
       originy="0"
       spacingx="0.19999999"
       spacingy="0.19999999"
       empcolor="#0099e5"
       empopacity="0.30196078"
       color="#0099e5"
       opacity="0.14901961"
       empspacing="5"
       enabled="true"
       visible="true" />
  </sodipodi:namedview>
  <defs
     id="defs1" />
  <g
     inkscape:label="Layer 1"
     inkscape:groupmode="layer"
     id="layer1">
    <g
       id="g7"
       transform="translate(-1.9999989,2.1655427)">
      <g
         id="g5">
        <path
           id="path5"
           style="fill:#e5e5e5;fill-opacity:1;stroke:#000000;stroke-width:0.1;stroke-dasharray:none;stroke-opacity:1"
           d="m 33,54.5 c -10.263374,2.184206 0,0 -10.263374,2.184206 -0.232935,0.04957 -0.536627,-0.674916 -0.536627,-1.084208 0,-0.6 0.373986,-0.988837 0.536627,-1.099998 10.241709,-6.999959 0,0 10.241709,-6.999959 L 33,51 Z"
           sodipodi:nodetypes="csssccc"
           inkscape:transform-center-x="6.3999994"
           inkscape:transform-center-y="22.093333" />
        <path
           id="path5-5"
           style="fill:#e5e5e5;fill-opacity:1;stroke:#000000;stroke-width:0.1;stroke-dasharray:none;stroke-opacity:1"
           d="m 34.999998,54.5 c 10.263374,2.184206 0,0 10.263374,2.184206 0.232935,0.04957 0.536627,-0.674916 0.536627,-1.084208 0,-0.6 -0.373986,-0.988837 -0.536627,-1.099998 -10.241709,-6.999959 0,0 -10.241709,-6.999959 L 34.999998,51 Z"
           sodipodi:nodetypes="csssccc"
           inkscape:transform-center-x="-6.3999996"
           inkscape:transform-center-y="22.093333" />
      </g>
      <path
         id="path1"
         style="fill:#e5e5e5;fill-opacity:1;stroke:#000000;stroke-width:0.1;stroke-dasharray:none"
         inkscape:transform-center-x="2.4999999"
         inkscape:transform-center-y="-0.5000001"
         d="M 33.999992,2.9998169 C 32.720835,4.1658937 32.000175,5.163374 31.000175,8.4082723 29.866207,12.087882 28.99978,14.853759 28.99978,17.060974 v 23.226489 c 0,3.420422 2.000212,11.386205 5.000212,15.712736 3,-4.326531 5.000211,-12.292314 5.000211,-15.712736 V 17.060974 c 0,-2.207215 -0.866426,-4.973092 -2.000394,-8.6527017 -1,-3.2448983 -1.72066,-4.2423786 -2.999817,-5.4084554 z" />
      <rect
         style="fill:#000000;fill-opacity:1;stroke:#bcbcbc;stroke-width:0;stroke-dasharray:none;stroke-opacity:1"
         id="rect4"
         width="2.9999998"
         height="6.730689"
         x="21.236628"
         y="22.02363"
         ry="0.84279835"
         inkscape:transform-center-x="11.263371"
         inkscape:transform-center-y="-4.6110244" />
      <path
         style="fill:#000000;fill-opacity:1;stroke:#bcbcbc;stroke-width:1.4;stroke-dasharray:none;stroke-opacity:1"
         d="M 8.2495978,35.590882 26.550401,26.009117"
         id="path4"
         inkscape:transform-center-x="16.6"
         inkscape:transform-center-y="0.80000045" />
      <rect
         style="fill:#000000;fill-opacity:1;stroke:#bcbcbc;stroke-width:0;stroke-dasharray:none;stroke-opacity:1"
         id="rect4-4"
         width="2.9999998"
         height="6.730689"
         x="-46.763371"
         y="22.02363"
         ry="0.84279835"
         inkscape:transform-center-x="-11.263371"
         inkscape:transform-center-y="-4.6110244"
         transform="scale(-1,1)" />
      <g
         id="g6"
         style="stroke:#000000;stroke-width:0.1;stroke-dasharray:none;stroke-opacity:1">
        <path
           id="path2"
           style="fill:#e5e5e5;fill-opacity:1;stroke:#000000;stroke-width:0.1;stroke-dasharray:none;stroke-opacity:1"
           d="M 28.999999,23.999999 C 6.2981978,35.927738 18.55108,29.499994 6.2981978,35.927738 c -0.551862,0.289501 -0.573691,1.402448 0.228101,1.872261 0.462187,0.27082 1.532184,0.135379 2.073701,0 7.9999992,-2 7.8537112,-2.416181 9.5999992,-2.6 3.8,-0.4 6,-0.6 10.8,-0.6 v -4.6 z"
           sodipodi:nodetypes="cssssccc"
           inkscape:transform-center-x="16.549167"
           inkscape:transform-center-y="0.97817416" />
        <path
           id="path2-2"
           style="fill:#e5e5e5;fill-opacity:1;stroke:#000000;stroke-width:0.1;stroke-dasharray:none;stroke-opacity:1"
           d="M 38.999999,23.999999 C 61.7018,35.927738 49.448918,29.499994 61.7018,35.927738 c 0.551862,0.289501 0.573691,1.402448 -0.228101,1.872261 -0.462187,0.27082 -1.532184,0.135379 -2.073701,0 -7.999999,-2 -7.853711,-2.416181 -9.599999,-2.6 -3.8,-0.4 -6,-0.6 -10.8,-0.6 v -4.6 z"
           sodipodi:nodetypes="cssssccc"
           inkscape:transform-center-x="-16.549167"
           inkscape:transform-center-y="0.97817416" />
      </g>
      <path
         style="fill:#000000;fill-opacity:1;stroke:#bcbcbc;stroke-width:1.4;stroke-dasharray:none;stroke-opacity:1"
         d="M 59.7504,35.590882 41.449597,26.009117"
         id="path4-5"
         inkscape:transform-center-x="-16.6"
         inkscape:transform-center-y="0.80000045" />
      <path
         style="fill:#000000;fill-opacity:1;stroke:#bcbcbc;stroke-width:1.4;stroke-dasharray:none;stroke-opacity:1"
         d="M 8.249597,35.590882 26.5504,26.009117"
         id="path4-5-5"
         inkscape:transform-center-x="16.6"
         inkscape:transform-center-y="0.80000045" />
      <rect
         style="fill:#e5e5e5;fill-opacity:1;stroke:#000000;stroke-width:0.1;stroke-dasharray:none;stroke-opacity:1"
         id="rect6"
         width="1.9999999"
         height="7.9999995"
         x="32.999996"
         y="47.999996"
         ry="0.84279823" />
    </g>
  </g>
</svg>
